<?xml version="1.0" standalone="no"?>
<!DOCTYPE svg PUBLIC "-//W3C//DTD SVG 20010904//EN"
 "http://www.w3.org/TR/2001/REC-SVG-20010904/DTD/svg10.dtd">
<svg version="1.0" xmlns="http://www.w3.org/2000/svg"
 width="192.000000pt" height="192.000000pt" viewBox="0 0 192.000000 192.000000"
 preserveAspectRatio="xMidYMid meet">

<g transform="translate(0.000000,192.000000) scale(0.100000,-0.100000)"
fill="#000000" stroke="none">
<path d="M0 960 l0 -960 960 0 960 0 0 960 0 960 -960 0 -960 0 0 -960z m1088
326 c9 -9 10 -20 3 -38 -8 -21 -14 -24 -40 -20 -30 4 -61 -11 -61 -29 0 -4 21
-22 46 -40 58 -40 80 -86 63 -136 -14 -44 -56 -63 -136 -63 -69 0 -88 10 -79
38 6 18 2 22 -28 28 -68 12 -31 39 71 51 l56 6 -5 -27 c-7 -34 4 -40 32 -18
26 21 20 42 -19 65 -44 26 -81 75 -81 106 0 37 34 79 73 90 37 11 86 5 105
-13z m-533 -401 c0 -5 -12 -11 -27 -13 -36 -4 -35 -18 3 -37 54 -28 25 -96
-34 -81 -39 9 -36 37 3 30 39 -8 40 11 1 30 -34 18 -45 41 -30 67 8 16 19 19
47 17 20 -2 37 -7 37 -13z m630 -15 c-5 -8 -11 -8 -17 -2 -6 6 -7 16 -3 22 5
8 11 8 17 2 6 -6 7 -16 3 -22z m-577 -63 c2 -15 7 -27 12 -27 5 0 10 12 12 27
5 47 28 40 28 -10 l0 -45 -37 1 c-37 2 -38 3 -41 46 -2 32 0 42 10 39 7 -3 14
-17 16 -31z m210 -16 c2 -32 0 -42 -10 -39 -7 3 -14 17 -16 31 -2 15 -7 27
-12 27 -5 0 -10 -12 -12 -27 -4 -39 -28 -42 -28 -4 0 21 -5 31 -15 31 -10 0
-15 -10 -15 -30 0 -20 -5 -30 -15 -30 -11 0 -15 12 -15 44 l0 43 68 -1 67 -1
3 -44z m160 2 c3 -46 -15 -61 -20 -16 -4 36 -26 41 -30 7 -4 -39 -28 -43 -28
-5 0 21 -5 31 -15 31 -10 0 -15 -10 -15 -31 0 -46 -24 -31 -28 18 l-3 40 68
-1 68 -1 3 -42z m90 0 c3 -42 2 -43 -27 -43 -37 0 -44 10 -35 55 6 32 10 36
33 33 23 -3 26 -8 29 -45z m82 36 c0 -5 -7 -12 -15 -15 -9 -4 -15 -19 -15 -35
0 -19 -5 -29 -15 -29 -11 0 -15 11 -15 43 0 42 1 44 30 45 17 0 30 -4 30 -9z
m40 -34 c0 -33 -4 -45 -15 -45 -11 0 -15 12 -15 45 0 33 4 45 15 45 11 0 15
-12 15 -45z m50 14 c0 -38 24 -35 28 4 5 43 22 31 22 -16 0 -39 -2 -43 -26
-45 -37 -3 -54 14 -54 54 0 24 5 34 15 34 10 0 15 -10 15 -31z m211 10 c13
-25 8 -61 -8 -67 -9 -2 -13 7 -13 27 0 21 -5 31 -15 31 -10 0 -15 -10 -15 -30
0 -20 -5 -30 -15 -30 -10 0 -15 10 -15 30 0 20 -5 30 -15 30 -10 0 -15 -10
-15 -31 0 -39 -24 -34 -28 5 -6 46 2 52 67 53 51 1 63 -2 72 -18z m-599 -164
c-2 -19 -5 -35 -7 -35 -2 0 -5 16 -7 35 -2 21 0 35 7 35 7 0 9 -14 7 -35z m39
20 c6 15 8 10 8 -20 1 -26 -2 -35 -8 -26 -7 11 -9 11 -14 0 -3 -8 -5 4 -5 26
0 22 3 31 6 20 l5 -20 8 20z m44 -19 c0 -19 -4 -38 -8 -42 -7 -7 -9 1 -9 36 0
33 2 40 10 40 4 0 7 -16 7 -34z m73 -1 c0 -23 -5 -35 -14 -35 -9 0 -14 12 -14
35 0 23 5 35 14 35 9 0 14 -12 14 -35z m40 -2 c-2 -21 -7 -38 -13 -38 -5 0
-11 17 -13 38 -3 29 0 37 13 37 13 0 16 -8 13 -37z m34 2 c-2 -19 -5 -35 -7
-35 -2 0 -5 16 -7 35 -2 21 0 35 7 35 7 0 9 -14 7 -35z"/>
<path d="M1032 655 c0 -16 2 -22 5 -12 2 9 2 23 0 30 -3 6 -5 -1 -5 -18z"/>
</g>
</svg>
